<svg width="158" height="48" viewBox="0 0 158 48" fill="none" xmlns="http://www.w3.org/2000/svg">
<rect width="158" height="48" rx="6" fill="#8C30F5"/>
<path d="M39.8438 21.4205C39.7831 20.8826 39.5331 20.4659 39.0938 20.1705C38.6544 19.8712 38.1013 19.7216 37.4347 19.7216C36.9574 19.7216 36.5445 19.7973 36.196 19.9489C35.8475 20.0966 35.5767 20.3011 35.3835 20.5625C35.1941 20.8201 35.0994 21.1136 35.0994 21.4432C35.0994 21.7197 35.1638 21.9583 35.2926 22.1591C35.4252 22.3598 35.5975 22.5284 35.8097 22.6648C36.0256 22.7973 36.2566 22.9091 36.5028 23C36.7491 23.0871 36.9858 23.1591 37.2131 23.2159L38.3494 23.5114C38.7206 23.6023 39.1013 23.7254 39.4915 23.8807C39.8816 24.036 40.2434 24.2405 40.5767 24.4943C40.91 24.7481 41.179 25.0625 41.3835 25.4375C41.5919 25.8125 41.696 26.2614 41.696 26.7841C41.696 27.4432 41.5256 28.0284 41.1847 28.5398C40.8475 29.0511 40.357 29.4545 39.7131 29.75C39.0729 30.0455 38.2983 30.1932 37.3892 30.1932C36.518 30.1932 35.7642 30.0549 35.1278 29.7784C34.4915 29.5019 33.9934 29.1098 33.6335 28.6023C33.2737 28.0909 33.0748 27.4848 33.0369 26.7841H34.7983C34.8324 27.2045 34.9688 27.5549 35.2074 27.8352C35.4498 28.1117 35.7585 28.3182 36.1335 28.4545C36.5123 28.5871 36.9271 28.6534 37.3778 28.6534C37.8741 28.6534 38.3153 28.5758 38.7017 28.4205C39.0919 28.2614 39.3987 28.0417 39.6222 27.7614C39.8456 27.4773 39.9574 27.1458 39.9574 26.767C39.9574 26.4223 39.8589 26.1402 39.6619 25.9205C39.4688 25.7008 39.2055 25.5189 38.8722 25.375C38.5426 25.2311 38.1695 25.1042 37.7528 24.9943L36.3778 24.6193C35.446 24.3655 34.7074 23.9924 34.1619 23.5C33.6203 23.0076 33.3494 22.3561 33.3494 21.5455C33.3494 20.875 33.5313 20.2898 33.8949 19.7898C34.2585 19.2898 34.7509 18.9015 35.3722 18.625C35.9934 18.3447 36.6941 18.2045 37.4744 18.2045C38.2623 18.2045 38.9574 18.3428 39.5597 18.6193C40.1657 18.8958 40.643 19.2765 40.9915 19.7614C41.34 20.2424 41.5218 20.7955 41.5369 21.4205H39.8438ZM47.7315 21.2727V22.6364H42.9645V21.2727H47.7315ZM44.2429 19.1818H45.9418V27.4375C45.9418 27.767 45.991 28.0152 46.0895 28.1818C46.188 28.3447 46.3149 28.4564 46.4702 28.517C46.6293 28.5739 46.8016 28.6023 46.9872 28.6023C47.1236 28.6023 47.2429 28.5928 47.3452 28.5739C47.4474 28.5549 47.527 28.5398 47.5838 28.5284L47.8906 29.9318C47.7921 29.9697 47.652 30.0076 47.4702 30.0455C47.2884 30.0871 47.0611 30.1098 46.7884 30.1136C46.3414 30.1212 45.9247 30.0417 45.5384 29.875C45.152 29.7083 44.8395 29.4508 44.6009 29.1023C44.3622 28.7538 44.2429 28.3163 44.2429 27.7898V19.1818ZM52.7841 30.1705C52.0795 30.1705 51.4508 29.9905 50.8977 29.6307C50.3485 29.267 49.9167 28.75 49.6023 28.0795C49.2917 27.4053 49.1364 26.5966 49.1364 25.6534C49.1364 24.7102 49.2936 23.9034 49.608 23.233C49.9261 22.5625 50.3617 22.0492 50.9148 21.6932C51.4678 21.3371 52.0947 21.1591 52.7955 21.1591C53.3371 21.1591 53.7727 21.25 54.1023 21.4318C54.4356 21.6098 54.6932 21.8182 54.875 22.0568C55.0606 22.2955 55.2045 22.5057 55.3068 22.6875H55.4091V21.2727H57.108V30H55.4489V28.642H55.3068C55.2045 28.8277 55.0568 29.0398 54.8636 29.2784C54.6742 29.517 54.4129 29.7254 54.0795 29.9034C53.7462 30.0814 53.3144 30.1705 52.7841 30.1705ZM53.1591 28.7216C53.6477 28.7216 54.0606 28.5928 54.3977 28.3352C54.7386 28.0739 54.9962 27.7121 55.1705 27.25C55.3485 26.7879 55.4375 26.25 55.4375 25.6364C55.4375 25.0303 55.3504 24.5 55.1761 24.0455C55.0019 23.5909 54.7462 23.2367 54.4091 22.983C54.072 22.7292 53.6553 22.6023 53.1591 22.6023C52.6477 22.6023 52.2216 22.7348 51.8807 23C51.5398 23.2652 51.2822 23.6269 51.108 24.0852C50.9375 24.5436 50.8523 25.0606 50.8523 25.6364C50.8523 26.2197 50.9394 26.7443 51.1136 27.2102C51.2879 27.6761 51.5455 28.0455 51.8864 28.3182C52.2311 28.5871 52.6553 28.7216 53.1591 28.7216ZM59.5327 30V21.2727H61.1747V22.6591H61.2656C61.4247 22.1894 61.705 21.8201 62.1065 21.5511C62.508 21.2784 62.9664 21.142 63.4815 21.142C63.7202 21.142 63.9342 21.1705 64.1236 21.2273C64.313 21.2841 64.4796 21.3617 64.6236 21.4602L64.0781 22.8807C63.9759 22.8314 63.8603 22.7917 63.7315 22.7614C63.6027 22.7273 63.455 22.7102 63.2884 22.7102C62.8944 22.7102 62.5421 22.7955 62.2315 22.9659C61.9247 23.1326 61.6804 23.3636 61.4986 23.6591C61.3205 23.9545 61.2315 24.2917 61.2315 24.6705V30H59.5327ZM70.4659 21.2727V22.6364H65.6989V21.2727H70.4659ZM66.9773 19.1818H68.6761V27.4375C68.6761 27.767 68.7254 28.0152 68.8239 28.1818C68.9223 28.3447 69.0492 28.4564 69.2045 28.517C69.3636 28.5739 69.536 28.6023 69.7216 28.6023C69.858 28.6023 69.9773 28.5928 70.0795 28.5739C70.1818 28.5549 70.2614 28.5398 70.3182 28.5284L70.625 29.9318C70.5265 29.9697 70.3864 30.0076 70.2045 30.0455C70.0227 30.0871 69.7955 30.1098 69.5227 30.1136C69.0758 30.1212 68.6591 30.0417 68.2727 29.875C67.8864 29.7083 67.5739 29.4508 67.3352 29.1023C67.0966 28.7538 66.9773 28.3163 66.9773 27.7898V19.1818ZM83.1193 23.4034L81.5795 23.6761C81.5152 23.4792 81.4129 23.2917 81.2727 23.1136C81.1364 22.9356 80.9508 22.7898 80.7159 22.6761C80.4811 22.5625 80.1875 22.5057 79.8352 22.5057C79.3542 22.5057 78.9527 22.6136 78.6307 22.8295C78.3087 23.0417 78.1477 23.3163 78.1477 23.6534C78.1477 23.9451 78.2557 24.1799 78.4716 24.358C78.6875 24.536 79.036 24.6818 79.517 24.7955L80.9034 25.1136C81.7064 25.2992 82.3049 25.5852 82.6989 25.9716C83.0928 26.358 83.2898 26.8598 83.2898 27.4773C83.2898 28 83.1383 28.4659 82.8352 28.875C82.536 29.2803 82.1174 29.5985 81.5795 29.8295C81.0455 30.0606 80.4261 30.1761 79.7216 30.1761C78.7443 30.1761 77.947 29.9678 77.3295 29.5511C76.7121 29.1307 76.3333 28.5341 76.1932 27.7614L77.8352 27.5114C77.9375 27.9394 78.1477 28.2633 78.4659 28.483C78.7841 28.6989 79.1989 28.8068 79.7102 28.8068C80.267 28.8068 80.7121 28.6913 81.0455 28.4602C81.3788 28.2254 81.5455 27.9394 81.5455 27.6023C81.5455 27.3295 81.4432 27.1004 81.2386 26.9148C81.0379 26.7292 80.7292 26.589 80.3125 26.4943L78.8352 26.1705C78.0208 25.9848 77.4186 25.6894 77.0284 25.2841C76.642 24.8788 76.4489 24.3655 76.4489 23.7443C76.4489 23.2292 76.5928 22.7784 76.8807 22.392C77.1686 22.0057 77.5663 21.7045 78.0739 21.4886C78.5814 21.2689 79.1629 21.1591 79.8182 21.1591C80.7614 21.1591 81.5038 21.3636 82.0455 21.7727C82.5871 22.178 82.9451 22.7216 83.1193 23.4034ZM88.919 30.1761C88.0592 30.1761 87.3187 29.9924 86.6974 29.625C86.08 29.2538 85.6027 28.733 85.2656 28.0625C84.9323 27.3883 84.7656 26.5985 84.7656 25.6932C84.7656 24.7992 84.9323 24.0114 85.2656 23.3295C85.6027 22.6477 86.0724 22.1155 86.6747 21.733C87.2808 21.3504 87.9891 21.1591 88.7997 21.1591C89.2921 21.1591 89.7694 21.2405 90.2315 21.4034C90.6937 21.5663 91.1084 21.822 91.4759 22.1705C91.8433 22.5189 92.133 22.9716 92.3452 23.5284C92.5573 24.0814 92.6634 24.7538 92.6634 25.5455V26.1477H85.7259V24.875H90.9986C90.9986 24.428 90.9077 24.0322 90.7259 23.6875C90.544 23.339 90.2884 23.0644 89.9588 22.8636C89.633 22.6629 89.2505 22.5625 88.8111 22.5625C88.3338 22.5625 87.9171 22.6799 87.5611 22.9148C87.2088 23.1458 86.9361 23.4489 86.7429 23.8239C86.5535 24.1951 86.4588 24.5985 86.4588 25.0341V26.0284C86.4588 26.6117 86.5611 27.108 86.7656 27.517C86.974 27.9261 87.2637 28.2386 87.6349 28.4545C88.0062 28.6667 88.4399 28.7727 88.9361 28.7727C89.258 28.7727 89.5516 28.7273 89.8168 28.6364C90.0819 28.5417 90.3111 28.4015 90.5043 28.2159C90.6974 28.0303 90.8452 27.8011 90.9474 27.5284L92.5554 27.8182C92.4266 28.2917 92.1955 28.7064 91.8622 29.0625C91.5327 29.4148 91.1179 29.6894 90.6179 29.8864C90.1217 30.0795 89.5554 30.1761 88.919 30.1761ZM94.5483 18.3636H96.2472V27.6136C96.2472 27.9886 96.2945 28.2538 96.3892 28.4091C96.4877 28.5644 96.6733 28.6383 96.946 28.6307C97.0938 28.6269 97.2036 28.6174 97.2756 28.6023C97.3513 28.5871 97.4195 28.5701 97.4801 28.5511L97.7869 29.9091C97.6695 29.9432 97.5199 29.9754 97.3381 30.0057C97.16 30.0398 96.9574 30.0587 96.7301 30.0625C95.9953 30.0739 95.4479 29.8996 95.0881 29.5398C94.7282 29.1799 94.5483 28.6553 94.5483 27.9659V18.3636ZM99.142 18.3636H100.841V27.6136C100.841 27.9886 100.888 28.2538 100.983 28.4091C101.081 28.5644 101.267 28.6383 101.54 28.6307C101.688 28.6269 101.797 28.6174 101.869 28.6023C101.945 28.5871 102.013 28.5701 102.074 28.5511L102.381 29.9091C102.263 29.9432 102.114 29.9754 101.932 30.0057C101.754 30.0398 101.551 30.0587 101.324 30.0625C100.589 30.0739 100.042 29.8996 99.6818 29.5398C99.322 29.1799 99.142 28.6553 99.142 27.9659V18.3636ZM103.501 30V21.2727H105.2V30H103.501ZM104.359 19.9261C104.064 19.9261 103.81 19.8277 103.598 19.6307C103.39 19.4299 103.286 19.1913 103.286 18.9148C103.286 18.6345 103.39 18.3958 103.598 18.1989C103.81 17.9981 104.064 17.8977 104.359 17.8977C104.655 17.8977 104.907 17.9981 105.115 18.1989C105.327 18.3958 105.433 18.6345 105.433 18.9148C105.433 19.1913 105.327 19.4299 105.115 19.6307C104.907 19.8277 104.655 19.9261 104.359 19.9261ZM109.185 24.8182V30H107.486V21.2727H109.116V22.6932H109.224C109.425 22.2311 109.74 21.8598 110.168 21.5795C110.599 21.2992 111.143 21.1591 111.798 21.1591C112.393 21.1591 112.914 21.2841 113.361 21.5341C113.808 21.7803 114.154 22.1477 114.401 22.6364C114.647 23.125 114.77 23.7292 114.77 24.4489V30H113.071V24.6534C113.071 24.0208 112.906 23.5265 112.577 23.1705C112.247 22.8106 111.795 22.6307 111.219 22.6307C110.825 22.6307 110.474 22.7159 110.168 22.8864C109.865 23.0568 109.624 23.3068 109.446 23.6364C109.272 23.9621 109.185 24.3561 109.185 24.8182ZM120.707 33.4545C120.014 33.4545 119.418 33.3636 118.918 33.1818C118.421 33 118.016 32.7595 117.702 32.4602C117.387 32.161 117.152 31.8333 116.997 31.4773L118.457 30.875C118.56 31.0417 118.696 31.2178 118.866 31.4034C119.041 31.5928 119.276 31.7538 119.571 31.8864C119.87 32.0189 120.255 32.0852 120.724 32.0852C121.368 32.0852 121.901 31.928 122.321 31.6136C122.741 31.303 122.952 30.8068 122.952 30.125V28.4091H122.844C122.741 28.5947 122.594 28.8011 122.401 29.0284C122.211 29.2557 121.95 29.4527 121.616 29.6193C121.283 29.786 120.849 29.8693 120.315 29.8693C119.626 29.8693 119.005 29.7083 118.452 29.3864C117.902 29.0606 117.467 28.5814 117.145 27.9489C116.827 27.3125 116.668 26.5303 116.668 25.6023C116.668 24.6742 116.825 23.8788 117.139 23.2159C117.457 22.553 117.893 22.0455 118.446 21.6932C118.999 21.3371 119.626 21.1591 120.327 21.1591C120.868 21.1591 121.306 21.25 121.639 21.4318C121.973 21.6098 122.232 21.8182 122.418 22.0568C122.607 22.2955 122.753 22.5057 122.855 22.6875H122.98V21.2727H124.645V30.1932C124.645 30.9432 124.471 31.5587 124.122 32.0398C123.774 32.5208 123.302 32.8769 122.707 33.108C122.116 33.339 121.45 33.4545 120.707 33.4545ZM120.69 28.4602C121.179 28.4602 121.592 28.3466 121.929 28.1193C122.27 27.8883 122.527 27.5587 122.702 27.1307C122.88 26.6989 122.969 26.1818 122.969 25.5795C122.969 24.9924 122.882 24.4754 122.707 24.0284C122.533 23.5814 122.277 23.233 121.94 22.983C121.603 22.7292 121.187 22.6023 120.69 22.6023C120.179 22.6023 119.753 22.7348 119.412 23C119.071 23.2614 118.813 23.6174 118.639 24.0682C118.469 24.5189 118.384 25.0227 118.384 25.5795C118.384 26.1515 118.471 26.6534 118.645 27.0852C118.819 27.517 119.077 27.8542 119.418 28.0966C119.762 28.339 120.187 28.4602 120.69 28.4602Z" fill="white"/>
</svg>
